<?xml version="1.0" encoding="UTF-8" standalone="no"?>
<svg
   xmlns:dc="http://purl.org/dc/elements/1.1/"
   xmlns:cc="http://creativecommons.org/ns#"
   xmlns:rdf="http://www.w3.org/1999/02/22-rdf-syntax-ns#"
   xmlns:svg="http://www.w3.org/2000/svg"
   xmlns="http://www.w3.org/2000/svg"
   xmlns:sodipodi="http://sodipodi.sourceforge.net/DTD/sodipodi-0.dtd"
   xmlns:inkscape="http://www.inkscape.org/namespaces/inkscape"
   version="1.1"
   id="Layer_1"
   x="0px"
   y="0px"
   viewBox="0 0 32 32"
   xml:space="preserve"
   sodipodi:docname="mark.svg"
   width="32"
   height="32"
   inkscape:version="1.0.1 (3bc2e813f5, 2020-09-07)"><metadata
   id="metadata192"><rdf:RDF><cc:Work
       rdf:about=""><dc:format>image/svg+xml</dc:format><dc:type
         rdf:resource="http://purl.org/dc/dcmitype/StillImage" /><dc:title /></cc:Work></rdf:RDF></metadata><defs
   id="defs190" /><sodipodi:namedview
   pagecolor="#ffffff"
   bordercolor="#666666"
   borderopacity="1"
   objecttolerance="10"
   gridtolerance="10"
   guidetolerance="10"
   inkscape:pageopacity="0"
   inkscape:pageshadow="2"
   inkscape:window-width="1368"
   inkscape:window-height="850"
   id="namedview188"
   showgrid="false"
   inkscape:zoom="10"
   inkscape:cx="7.3999997"
   inkscape:cy="21.933333"
   inkscape:window-x="-6"
   inkscape:window-y="-6"
   inkscape:window-maximized="1"
   inkscape:current-layer="Layer_1"
   inkscape:document-rotation="0" />
<g
   id="g155"
   transform="matrix(0.06250183,0,0,0.0625,0.16653125,0)"
   style="fill:#4d4d4d">
	<g
   id="g153"
   style="fill:#4d4d4d">
		<path
   d="M 256,0 C 161.896,0 85.333,76.563 85.333,170.667 c 0,28.25 7.063,56.26 20.49,81.104 L 246.667,506.5 c 1.875,3.396 5.448,5.5 9.333,5.5 3.885,0 7.458,-2.104 9.333,-5.5 L 406.229,251.687 c 13.375,-24.76 20.438,-52.771 20.438,-81.021 C 426.667,76.563 350.104,0 256,0 Z m 0,256 c -47.052,0 -85.333,-38.281 -85.333,-85.333 0,-47.052 38.281,-85.333 85.333,-85.333 47.052,0 85.333,38.281 85.333,85.333 C 341.333,217.719 303.052,256 256,256 Z"
   id="path151"
   style="fill:#4d4d4d" />
	</g>
</g>
<g
   id="g157">
</g>
<g
   id="g159">
</g>
<g
   id="g161">
</g>
<g
   id="g163">
</g>
<g
   id="g165">
</g>
<g
   id="g167">
</g>
<g
   id="g169">
</g>
<g
   id="g171">
</g>
<g
   id="g173">
</g>
<g
   id="g175">
</g>
<g
   id="g177">
</g>
<g
   id="g179">
</g>
<g
   id="g181">
</g>
<g
   id="g183">
</g>
<g
   id="g185">
</g>
</svg>
